<?xml version="1.0" encoding="UTF-8"?>
<!DOCTYPE svg PUBLIC "-//W3C//DTD SVG 1.1//EN" "http://www.w3.org/Graphics/SVG/1.1/DTD/svg11.dtd">
<!-- Creator: CorelDRAW X7 -->
<svg xmlns="http://www.w3.org/2000/svg" xml:space="preserve" width="37.3123mm" height="35.3808mm" version="1.1" style="shape-rendering:geometricPrecision; text-rendering:geometricPrecision; image-rendering:optimizeQuality; fill-rule:evenodd; clip-rule:evenodd"
viewBox="0 0 14660 6243"
 xmlns:xlink="http://www.w3.org/1999/xlink">
 <defs>
  <style type="text/css">
   <![CDATA[
    .str0 {stroke:#DC0409;stroke-width:17.8603}
    .str1 {stroke:#DC0409;stroke-width:6.80478}
    .fil0 {fill:none}
    .fil1 {fill:#DC0409}
    .fil2 {fill:white}
   ]]>
  </style>
 </defs>
 <g id="Layer_x0020_1">
  <metadata id="CorelCorpID_0Corel-Layer"/>
  <path class="fil0 str0" d="M12 3884l12777 0c344,0 714,-281 824,-625l1035 -3250 -12777 0c-344,0 -715,281 -824,625l-1035 3250z"/>
  <path class="fil0 str0" d="M3359 1665c-178,214 -486,629 -650,869 -164,239 -184,302 -178,353 6,51 38,91 85,110 47,20 110,20 201,12 90,-8 208,-24 287,-47 79,-24 118,-55 136,-101 18,-45 14,-104 36,-173 21,-69 68,-148 122,-218 53,-71 112,-134 213,-230 102,-96 245,-225 468,-326 222,-101 524,-174 775,-186 251,-12 452,36 580,101 127,66 183,148 206,235 24,87 16,177 -72,303 -87,125 -255,286 -524,386 -270,101 -642,141 -828,167 -186,26 -186,38 -137,69 49,32 148,83 299,109 152,25 357,25 555,-28 199,-53 392,-159 550,-272 157,-112 279,-230 390,-362 110,-132 208,-277 256,-384 47,-106 43,-173 29,-220 -14,-48 -38,-76 -59,-147 -20,-71 -36,-185 -36,-274 1,-88 19,-151 52,-212 32,-60 80,-119 146,-163 66,-43 150,-71 253,-89 102,-19 222,-29 301,17 79,47 116,149 127,245 11,95 -5,184 -43,256 -39,71 -100,127 -86,156 15,30 104,33 224,32 119,-1 269,-8 394,-14 124,-5 224,-9 296,6 72,16 118,50 133,101 15,50 0,117 -62,200 -63,83 -173,181 -277,305 -105,124 -203,274 -268,380 -65,106 -97,169 -106,217 -10,47 1,78 35,92 33,14 89,10 163,-27 75,-38 170,-109 272,-207 102,-99 213,-225 323,-351 110,-126 221,-252 286,-338 64,-87 84,-134 68,-185 -15,-52 -67,-107 -106,-168 -39,-61 -67,-128 -65,-204 2,-77 34,-164 85,-249 51,-84 122,-167 201,-218 78,-51 165,-71 267,-71 103,0 221,20 288,61 67,41 83,104 88,181 6,77 2,168 -15,229 -18,61 -49,92 -36,112 14,19 73,27 176,27 102,0 248,-8 380,-9 131,-2 250,1 320,21 71,20 95,55 107,103 12,47 12,106 -6,163 -18,57 -53,112 -165,246 -113,134 -302,347 -412,483 -110,135 -142,194 -156,254 -13,59 -9,118 36,147 45,30 132,30 209,14 76,-16 143,-47 191,-98 47,-52 74,-123 112,-197 37,-75 84,-154 155,-243 71,-88 166,-187 356,-321 191,-135 477,-307 775,-366 297,-59 605,-6 763,36 157,41 164,71 225,57 61,-14 176,-71 305,-100 128,-28 270,-28 353,-22 82,6 106,17 112,51 6,33 -6,89 -63,159 -57,71 -160,158 -250,264 -91,107 -170,233 -235,337 -65,104 -116,187 -145,250 -30,63 -38,106 -32,140 6,33 26,57 81,67 55,10 146,6 221,-10 74,-16 133,-43 185,-57 51,-14 94,-14 120,6 25,19 33,59 2,104 -32,45 -103,97 -185,154 -83,57 -178,120 -284,161 -106,41 -224,61 -325,77 -100,16 -183,27 -264,25 -80,-1 -159,-17 -233,-55 -75,-37 -145,-96 -204,-110 -59,-14 -107,18 -198,59 -91,42 -225,93 -387,120 -161,28 -350,32 -486,6 -136,-25 -218,-81 -285,-136 -67,-55 -119,-110 -164,-138 -45,-27 -84,-27 -159,10 -75,38 -185,113 -276,162 -91,49 -161,73 -264,82 -102,10 -236,6 -329,0 -92,-5 -143,-13 -187,-43 -43,-29 -78,-81 -94,-161 -16,-81 -12,-191 12,-286 23,-94 67,-173 169,-323 102,-149 264,-370 356,-490 93,-120 117,-140 50,-150 -67,-9 -225,-9 -306,10 -80,20 -84,59 -149,164 -65,104 -191,273 -329,435 -138,161 -288,315 -443,435 -156,120 -317,207 -419,266 -103,59 -146,90 -247,112 -100,22 -258,33 -378,33 -120,0 -202,-11 -269,-61 -67,-49 -119,-135 -136,-226 -18,-91 -2,-185 51,-293 53,-109 144,-231 240,-363 97,-132 199,-273 254,-354 55,-81 63,-101 -2,-108 -65,-8 -203,-4 -285,15 -83,20 -111,55 -181,162 -71,106 -186,283 -282,415 -97,132 -175,219 -291,315 -117,97 -270,203 -424,288 -153,84 -307,147 -464,195 -158,47 -319,78 -542,76 -222,-1 -506,-37 -692,-112 -186,-76 -275,-191 -359,-228 -85,-38 -166,3 -253,43 -88,40 -183,79 -273,116 -91,38 -177,73 -274,103 -96,29 -203,53 -311,61 -108,8 -218,0 -309,-26 -91,-25 -161,-69 -197,-161 -35,-93 -35,-235 12,-388 47,-154 142,-319 291,-524 150,-205 355,-449 480,-602 126,-154 172,-217 174,-247 2,-29 -40,-25 -189,-27 -150,-1 -406,-8 -540,-32 -133,-23 -145,-64 -153,-113 -8,-50 -12,-109 26,-166 37,-57 116,-112 201,-112 85,0 177,55 287,84 110,30 239,34 339,40 100,6 171,13 228,2 57,-12 100,-44 134,-93 33,-49 57,-116 81,-161 23,-46 47,-69 118,-78 71,-8 189,-1 307,-3 118,-2 236,-13 305,-9 69,5 89,25 60,78 -29,53 -105,140 -97,166 7,27 100,-7 166,-15 66,-8 105,10 125,42 20,32 21,79 7,124 -14,46 -42,90 -118,119 -77,28 -202,42 -288,55 -86,13 -134,25 -311,238z"/>
  <path class="fil0 str0" d="M1413 4458c191,0 382,0 486,7 105,7 122,21 130,45 8,23 6,57 -59,134 -65,76 -193,196 -254,265 -61,69 -55,87 -40,92 15,5 38,-3 119,-51 81,-48 219,-137 343,-214 124,-77 234,-142 328,-193 95,-51 174,-88 250,-113 75,-25 148,-36 218,-43 70,-7 137,-9 201,-2 64,7 125,22 173,45 48,23 84,52 105,91 20,38 26,85 24,141 -2,56 -12,121 -38,177 -27,57 -70,104 -169,210 -98,107 -252,272 -342,378 -91,107 -118,154 -126,192 -8,39 4,68 37,86 34,18 89,23 160,15 71,-9 157,-33 227,-55 70,-21 123,-41 166,-99 44,-58 77,-155 112,-233 34,-79 70,-140 109,-199 39,-59 83,-116 148,-178 65,-62 151,-129 231,-191 80,-62 153,-119 211,-162 58,-42 101,-70 184,-106 83,-37 205,-82 312,-105 107,-24 200,-26 272,-31 71,-5 123,-13 164,0 41,13 73,46 90,86 16,39 18,84 9,134 -8,49 -28,102 -91,132 -63,31 -169,39 -257,62 -88,22 -157,60 -241,120 -85,61 -186,144 -258,228 -72,84 -115,167 -133,235 -18,67 -12,118 5,153 17,34 44,52 116,62 71,10 188,12 288,-13 99,-24 181,-76 267,-137 86,-62 177,-134 236,-203 59,-68 87,-134 110,-200 22,-65 40,-130 48,-190 7,-59 5,-114 8,-153 4,-40 12,-66 64,-83 52,-17 146,-25 264,-16 118,9 259,35 356,51 98,17 151,23 203,17 53,-7 105,-28 147,-69 41,-42 72,-104 81,-178 9,-74 -3,-161 -8,-225 -6,-63 -6,-104 15,-148 21,-45 62,-93 103,-142"/>
  <path class="fil0 str0" d="M1413 4458c-22,6 -43,12 -60,22 -17,10 -29,24 -77,79 -48,55 -133,152 -214,250 -82,98 -161,199 -236,302 -75,104 -145,210 -208,301 -63,92 -119,169 -169,242 -50,73 -95,141 -133,200 -37,60 -67,109 -78,159 -12,50 -6,101 32,128 38,27 109,29 205,29 95,0 215,-2 304,-1 89,1 146,4 210,-56 64,-60 135,-184 226,-296 92,-112 204,-213 280,-277 76,-64 115,-91 184,-146 69,-55 167,-138 244,-200 77,-62 132,-103 196,-136 64,-32 137,-56 199,-77 62,-20 113,-38 139,-32 25,6 25,35 10,67 -14,31 -44,65 -93,120 -49,55 -118,132 -179,198 -61,66 -114,121 -165,184 -50,63 -97,134 -129,192 -31,58 -47,103 -50,157 -3,54 7,117 39,170 31,52 84,93 177,113 92,20 224,18 346,14 122,-4 235,-10 383,-60 149,-51 334,-145 454,-193 120,-49 175,-51 230,-10 56,40 111,123 195,185 85,62 199,103 365,120 165,17 382,9 563,-23 181,-31 327,-86 447,-143 120,-58 214,-117 322,-218 107,-101 227,-245 305,-355 78,-111 113,-187 133,-250 19,-62 23,-111 39,-135 16,-23 45,-23 128,-26 83,-3 221,-9 334,-36 113,-26 202,-73 269,-122 68,-49 114,-101 159,-129 45,-29 88,-34 148,-35 59,-2 134,0 171,15 38,15 38,42 0,87 -37,44 -112,105 -173,171 -61,66 -108,137 -160,210 -51,72 -106,147 -155,222 -49,75 -93,150 -112,245 -20,96 -16,212 9,297 26,84 73,137 192,165 120,27 311,29 500,-16 189,-45 376,-138 483,-186 107,-48 135,-52 156,-28 22,23 38,74 88,122 50,47 135,90 302,105 168,15 418,1 627,-53 210,-54 379,-149 490,-191 110,-43 161,-33 209,5 49,37 94,102 118,138 23,35 25,41 73,66 49,26 143,71 327,99 184,28 458,37 702,14 244,-24 459,-81 657,-171 198,-89 379,-211 471,-286 93,-75 97,-102 85,-127 -12,-25 -39,-46 -75,-47 -35,-1 -78,18 -134,42 -55,24 -122,51 -206,85 -85,33 -187,73 -314,101 -127,29 -279,46 -420,53 -141,7 -271,3 -368,-31 -97,-35 -162,-100 -181,-142 -19,-42 9,-62 61,-69 52,-7 129,-1 223,-2 95,-1 207,-9 360,-50 152,-41 345,-116 491,-185 146,-69 244,-132 314,-198 70,-66 111,-135 135,-203 24,-68 29,-135 18,-191 -12,-56 -42,-101 -87,-151 -45,-49 -106,-102 -181,-139 -75,-38 -164,-59 -268,-73 -104,-14 -224,-20 -349,-13 -125,7 -255,27 -378,59 -122,33 -236,78 -346,130 -110,52 -217,111 -331,200 -114,89 -236,207 -322,301 -85,95 -135,166 -162,251 -28,86 -34,186 -53,245 -20,59 -54,77 -95,92 -41,15 -90,26 -156,39 -66,13 -149,27 -216,33 -67,6 -118,4 -155,-13 -36,-17 -58,-48 -69,-93 -12,-44 -14,-101 8,-167 23,-66 70,-141 126,-221 56,-81 121,-168 206,-282 85,-114 189,-256 290,-387 100,-131 196,-251 262,-332 66,-80 102,-122 154,-143 52,-22 121,-24 180,-30 59,-6 108,-16 146,-34 37,-19 63,-47 84,-79 20,-33 36,-71 52,-109"/>
  <path class="fil0 str0" d="M7942 3884c7,65 15,131 40,174 25,42 68,62 114,78 45,15 92,27 188,33 95,6 239,6 346,4 108,-2 178,-6 193,16 15,21 -26,69 -62,117 -35,48 -65,97 -143,198 -77,100 -203,252 -297,373 -93,121 -154,212 -211,295 -56,84 -107,161 -152,232 -45,71 -85,135 -120,183 -36,47 -67,77 -110,100 -44,24 -99,42 -158,52 -59,11 -122,15 -171,1 -50,-13 -85,-45 -104,-94 -18,-49 -20,-116 1,-176 22,-60 67,-114 117,-185 51,-70 106,-159 158,-238 52,-79 101,-147 157,-215 55,-68 116,-135 161,-191 45,-56 75,-102 81,-131 6,-30 -12,-44 -51,-56 -40,-13 -101,-25 -192,-30 -92,-5 -214,-3 -319,-12 -106,-9 -194,-28 -243,-55 -48,-26 -56,-60 -38,-96 18,-37 61,-76 91,-126 29,-51 45,-112 46,-155 1,-44 -13,-70 -27,-96"/>
  <path class="fil0 str0" d="M4973 2124c-50,-11 -117,-5 -183,10 -66,15 -131,39 -205,71 -74,33 -156,74 -238,131 -82,57 -163,130 -197,176 -35,46 -23,66 37,71 60,5 169,-5 310,-45 142,-41 317,-111 421,-162 103,-50 135,-79 151,-107 17,-28 19,-53 3,-80 -15,-26 -49,-54 -99,-65z"/>
  <path class="fil0 str0" d="M11049 4834c-99,3 -200,26 -282,56 -83,29 -148,65 -234,129 -85,64 -192,156 -220,214 -29,58 21,82 109,75 89,-7 217,-44 336,-83 120,-39 231,-79 323,-124 93,-45 167,-96 208,-136 41,-40 49,-69 3,-93 -45,-24 -143,-41 -243,-38z"/>
  <path class="fil0 str0" d="M11642 2164c-4,-34 -16,-40 -100,-31 -84,8 -240,31 -376,81 -137,51 -254,129 -340,197 -85,68 -139,127 -176,203 -37,76 -57,169 -45,222 12,53 55,67 113,72 58,5 131,1 204,-9 74,-9 148,-24 229,-78 82,-54 172,-148 237,-212 66,-65 107,-100 144,-143 37,-43 69,-93 88,-149 19,-57 25,-119 22,-153z"/>
  <path class="fil1 str1" d="M8208 1211c51,-84 122,-167 201,-218 78,-51 165,-71 267,-71 103,0 221,20 288,61 67,41 83,104 88,181 6,77 2,168 -15,229 -18,61 -49,92 -36,112 14,19 73,27 176,27 102,0 248,-8 380,-9 131,-2 250,1 320,21 71,20 95,55 107,103 12,47 12,106 -6,163 -18,57 -53,112 -165,246 -113,134 -302,347 -412,483 -110,135 -142,194 -156,254 -13,59 -9,118 36,147 45,30 132,30 209,14 76,-16 143,-47 191,-98 47,-52 74,-123 112,-197 37,-75 84,-154 155,-243 71,-88 166,-187 356,-321 191,-135 477,-307 775,-366 297,-59 605,-6 763,36 157,41 164,71 225,57 61,-14 176,-71 305,-100 128,-28 270,-28 353,-22 82,6 106,17 112,51 6,33 -6,89 -63,159 -57,71 -160,158 -250,264 -91,107 -170,233 -235,337 -65,104 -116,187 -145,250 -30,63 -38,106 -32,140 6,33 26,57 81,67 55,10 146,6 221,-10 74,-16 133,-43 185,-57 51,-14 94,-14 120,6 25,19 33,59 2,104 -32,45 -103,97 -185,154 -83,57 -178,120 -284,161 -106,41 -224,61 -325,77 -100,16 -183,27 -264,25 -80,-1 -159,-17 -233,-55 -75,-37 -145,-96 -204,-110 -59,-14 -107,18 -198,59 -91,42 -225,93 -387,120 -161,28 -350,32 -486,6 -136,-25 -218,-81 -285,-136 -67,-55 -119,-110 -164,-138 -45,-27 -84,-27 -159,10 -75,38 -185,113 -276,162 -91,49 -161,73 -264,82 -102,10 -236,6 -329,0 -92,-5 -143,-13 -187,-43 -43,-29 -78,-81 -94,-161 -16,-81 -12,-191 12,-286 23,-94 67,-173 169,-323 102,-149 264,-370 356,-490 93,-120 117,-140 50,-150 -67,-9 -225,-9 -306,10 -80,20 -84,59 -149,164 -65,104 -191,273 -329,435 -138,161 -288,315 -443,435 -156,120 -317,207 -419,266 -103,59 -146,90 -247,112 -100,22 -258,33 -378,33 -120,0 -202,-11 -269,-61 -67,-49 -119,-135 -136,-226 -18,-91 -2,-185 51,-293 53,-109 144,-231 240,-363 97,-132 199,-273 254,-354 55,-81 63,-101 -2,-108 -65,-8 -203,-4 -285,15 -83,20 -111,55 -181,162 -71,106 -186,283 -282,415 -97,132 -175,219 -291,315 -117,97 -270,203 -424,288 -153,84 -307,147 -464,195 -158,47 -319,78 -542,76 -222,-1 -506,-37 -692,-112 -186,-76 -275,-191 -359,-228 -85,-38 -166,3 -253,43 -88,40 -183,79 -273,116 -91,38 -177,73 -274,103 -96,29 -203,53 -311,61 -108,8 -218,0 -309,-26 -91,-25 -161,-69 -197,-161 -35,-93 -35,-235 12,-388 47,-154 142,-319 291,-524 150,-205 355,-449 480,-602 126,-154 172,-217 174,-247 2,-29 -40,-25 -189,-27 -150,-1 -406,-8 -540,-32 -133,-23 -145,-64 -153,-113 -8,-50 -12,-109 26,-166 37,-57 116,-112 201,-112 85,0 177,55 287,84 110,30 239,34 339,40 100,6 171,13 228,2 57,-12 100,-44 134,-93 33,-49 57,-116 81,-161 23,-46 47,-69 118,-78 71,-8 189,-1 307,-3 118,-2 236,-13 305,-9 69,5 89,25 60,78 -29,53 -105,140 -97,166 7,27 100,-7 166,-15 66,-8 105,10 125,42 20,32 21,79 7,124 -14,46 -42,90 -118,119 -77,28 -202,42 -288,55 -86,13 -134,25 -311,238 -178,214 -486,629 -650,869 -164,239 -184,302 -178,353 6,51 38,91 85,110 47,20 110,20 201,12 90,-8 208,-24 287,-47 79,-24 118,-55 136,-101 18,-45 14,-104 36,-173 21,-69 68,-148 122,-218 53,-71 112,-134 213,-230 102,-96 245,-225 468,-326 222,-101 524,-174 775,-186 251,-12 452,36 580,101 127,66 183,148 206,235 24,87 16,177 -72,303 -87,125 -255,286 -524,386 -270,101 -642,141 -828,167 -186,26 -186,38 -137,69 49,32 148,83 299,109 152,25 357,25 555,-28 199,-53 392,-159 550,-272 157,-112 279,-230 390,-362 110,-132 208,-277 256,-384 47,-106 43,-173 29,-220 -14,-48 -38,-76 -59,-147 -20,-71 -36,-185 -36,-274 1,-88 19,-151 52,-212 32,-60 80,-119 146,-163 66,-43 150,-71 253,-89 102,-19 222,-29 301,17 79,47 116,149 127,245 11,95 -5,184 -43,256 -39,71 -100,127 -86,156 15,30 104,33 224,32 119,-1 269,-8 394,-14 124,-5 224,-9 296,6 72,16 118,50 133,101 15,50 0,117 -62,200 -63,83 -173,181 -277,305 -105,124 -203,274 -268,380 -65,106 -97,169 -106,217 -10,47 1,78 35,92 33,14 89,10 163,-27 75,-38 170,-109 272,-207 102,-99 213,-225 323,-351 110,-126 221,-252 286,-338 64,-87 84,-134 68,-185 -15,-52 -67,-107 -106,-168 -39,-61 -67,-128 -65,-204 2,-77 34,-164 85,-249zm-8196 2673l6505 0 720 0 705 0 2249 0 2598 0c344,0 714,-281 824,-625l1035 -3250 -12777 0c-344,0 -715,281 -824,625l-1035 3250z"/>
  <path class="fil1 str1" d="M10191 3884l-2249 0c7,65 15,131 40,174 25,42 68,62 114,78 45,15 92,27 188,33 95,6 239,6 346,4 108,-2 178,-6 193,16 15,21 -26,69 -62,117 -35,48 -65,97 -143,198 -77,100 -203,252 -297,373 -93,121 -154,212 -211,295 -56,84 -107,161 -152,232 -45,71 -85,135 -120,183 -36,47 -67,77 -110,100 -44,24 -99,42 -158,52 -59,11 -122,15 -171,1 -50,-13 -85,-45 -104,-94 -18,-49 -20,-116 1,-176 22,-60 67,-114 117,-185 51,-70 106,-159 158,-238 52,-79 101,-147 157,-215 55,-68 116,-135 161,-191 45,-56 75,-102 81,-131 6,-30 -12,-44 -51,-56 -40,-13 -101,-25 -192,-30 -92,-5 -214,-3 -319,-12 -106,-9 -194,-28 -243,-55 -48,-26 -56,-60 -38,-96 18,-37 61,-76 91,-126 29,-51 45,-112 46,-155 1,-44 -13,-70 -27,-96l-720 0c-41,49 -82,97 -103,142 -21,44 -21,85 -15,148 5,64 17,151 8,225 -9,74 -40,136 -81,178 -42,41 -94,62 -147,69 -52,6 -105,0 -203,-17 -97,-16 -238,-42 -356,-51 -118,-9 -212,-1 -264,16 -52,17 -60,43 -64,83 -3,39 -1,94 -8,153 -8,60 -26,125 -48,190 -23,66 -51,132 -110,200 -59,69 -150,141 -236,203 -86,61 -168,113 -267,137 -100,25 -217,23 -288,13 -72,-10 -99,-28 -116,-62 -17,-35 -23,-86 -5,-153 18,-68 61,-151 133,-235 72,-84 173,-167 258,-228 84,-60 153,-98 241,-120 88,-23 194,-31 257,-62 63,-30 83,-83 91,-132 9,-50 7,-95 -9,-134 -17,-40 -49,-73 -90,-86 -41,-13 -93,-5 -164,0 -72,5 -165,7 -272,31 -107,23 -229,68 -312,105 -83,36 -126,64 -184,106 -58,43 -131,100 -211,162 -80,62 -166,129 -231,191 -65,62 -109,119 -148,178 -39,59 -75,120 -109,199 -35,78 -68,175 -112,233 -43,58 -96,78 -166,99 -70,22 -156,46 -227,55 -71,8 -126,3 -160,-15 -33,-18 -45,-47 -37,-86 8,-38 35,-85 126,-192 90,-106 244,-271 342,-378 99,-106 142,-153 169,-210 26,-56 36,-121 38,-177 2,-56 -4,-103 -24,-141 -21,-39 -57,-68 -105,-91 -48,-23 -109,-38 -173,-45 -64,-7 -131,-5 -201,2 -70,7 -143,18 -218,43 -76,25 -155,62 -250,113 -94,51 -204,116 -328,193 -124,77 -262,166 -343,214 -81,48 -104,56 -119,51 -15,-5 -21,-23 40,-92 61,-69 189,-189 254,-265 65,-77 67,-111 59,-134 -8,-24 -25,-38 -130,-45 -104,-7 -295,-7 -486,-7 -22,6 -43,12 -60,22 -17,10 -29,24 -77,79 -48,55 -133,152 -214,250 -82,98 -161,199 -236,302 -75,104 -145,210 -208,301 -63,92 -119,169 -169,242 -50,73 -95,141 -133,200 -37,60 -67,109 -78,159 -12,50 -6,101 32,128 38,27 109,29 205,29 95,0 215,-2 304,-1 89,1 146,4 210,-56 64,-60 135,-184 226,-296 92,-112 204,-213 280,-277 76,-64 115,-91 184,-146 69,-55 167,-138 244,-200 77,-62 132,-103 196,-136 64,-32 137,-56 199,-77 62,-20 113,-38 139,-32 25,6 25,35 10,67 -14,31 -44,65 -93,120 -49,55 -118,132 -179,198 -61,66 -114,121 -165,184 -50,63 -97,134 -129,192 -31,58 -47,103 -50,157 -3,54 7,117 39,170 31,52 84,93 177,113 92,20 224,18 346,14 122,-4 235,-10 383,-60 149,-51 334,-145 454,-193 120,-49 175,-51 230,-10 56,40 111,123 195,185 85,62 199,103 365,120 165,17 382,9 563,-23 181,-31 327,-86 447,-143 120,-58 214,-117 322,-218 107,-101 227,-245 305,-355 78,-111 113,-187 133,-250 19,-62 23,-111 39,-135 16,-23 45,-23 128,-26 83,-3 221,-9 334,-36 113,-26 202,-73 269,-122 68,-49 114,-101 159,-129 45,-29 88,-34 148,-35 59,-2 134,0 171,15 38,15 38,42 0,87 -37,44 -112,105 -173,171 -61,66 -108,137 -160,210 -51,72 -106,147 -155,222 -49,75 -93,150 -112,245 -20,96 -16,212 9,297 26,84 73,137 192,165 120,27 311,29 500,-16 189,-45 376,-138 483,-186 107,-48 135,-52 156,-28 22,23 38,74 88,122 50,47 135,90 302,105 168,15 418,1 627,-53 210,-54 379,-149 490,-191 110,-43 161,-33 209,5 49,37 94,102 118,138 23,35 25,41 73,66 49,26 143,71 327,99 184,28 458,37 702,14 244,-24 459,-81 657,-171 198,-89 379,-211 471,-286 93,-75 97,-102 85,-127 -12,-25 -39,-46 -75,-47 -35,-1 -78,18 -134,42 -55,24 -122,51 -206,85 -85,33 -187,73 -314,101 -127,29 -279,46 -420,53 -141,7 -271,3 -368,-31 -97,-35 -162,-100 -181,-142 -19,-42 9,-62 61,-69 52,-7 129,-1 223,-2 95,-1 207,-9 360,-50 152,-41 345,-116 491,-185 146,-69 244,-132 314,-198 70,-66 111,-135 135,-203 24,-68 29,-135 18,-191 -12,-56 -42,-101 -87,-151 -45,-49 -106,-102 -181,-139 -75,-38 -164,-59 -268,-73 -104,-14 -224,-20 -349,-13 -125,7 -255,27 -378,59 -122,33 -236,78 -346,130 -110,52 -217,111 -331,200 -114,89 -236,207 -322,301 -85,95 -135,166 -162,251 -28,86 -34,186 -53,245 -20,59 -54,77 -95,92 -41,15 -90,26 -156,39 -66,13 -149,27 -216,33 -67,6 -118,4 -155,-13 -36,-17 -58,-48 -69,-93 -12,-44 -14,-101 8,-167 23,-66 70,-141 126,-221 56,-81 121,-168 206,-282 85,-114 189,-256 290,-387 100,-131 196,-251 262,-332 66,-80 102,-122 154,-143 52,-22 121,-24 180,-30 59,-6 108,-16 146,-34 37,-19 63,-47 84,-79 20,-33 36,-71 52,-109zm576 1006c82,-30 183,-53 282,-56 100,-3 198,14 243,38 46,24 38,53 -3,93 -41,40 -115,91 -208,136 -92,45 -203,85 -323,124 -119,39 -247,76 -336,83 -88,7 -138,-17 -109,-75 28,-58 135,-150 220,-214 86,-64 151,-100 234,-129z"/>
  <path class="fil1 str1" d="M4497 2538c142,-41 317,-111 421,-162 103,-50 135,-79 151,-107 17,-28 19,-53 3,-80 -15,-26 -49,-54 -99,-65 -50,-11 -117,-5 -183,10 -66,15 -131,39 -205,71 -74,33 -156,74 -238,131 -82,57 -163,130 -197,176 -35,46 -23,66 37,71 60,5 169,-5 310,-45z"/>
  <path class="fil1 str1" d="M10826 2411c-85,68 -139,127 -176,203 -37,76 -57,169 -45,222 12,53 55,67 113,72 58,5 131,1 204,-9 74,-9 148,-24 229,-78 82,-54 172,-148 237,-212 66,-65 107,-100 144,-143 37,-43 69,-93 88,-149 19,-57 25,-119 22,-153 -4,-34 -16,-40 -100,-31 -84,8 -240,31 -376,81 -137,51 -254,129 -340,197z"/>
  <path class="fil2" d="M3359 1665c177,-213 225,-225 311,-238 86,-13 211,-27 288,-55 76,-29 104,-73 118,-119 14,-45 13,-92 -7,-124 -20,-32 -59,-50 -125,-42 -66,8 -159,42 -166,15 -8,-26 68,-113 97,-166 29,-53 9,-73 -60,-78 -69,-4 -187,7 -305,9 -118,2 -236,-5 -307,3 -71,9 -95,32 -118,78 -24,45 -48,112 -81,161 -34,49 -77,81 -134,93 -57,11 -128,4 -228,-2 -100,-6 -229,-10 -339,-40 -110,-29 -202,-84 -287,-84 -85,0 -164,55 -201,112 -38,57 -34,116 -26,166 8,49 20,90 153,113 134,24 390,31 540,32 149,2 191,-2 189,27 -2,30 -48,93 -174,247 -125,153 -330,397 -480,602 -149,205 -244,370 -291,524 -47,153 -47,295 -12,388 36,92 106,136 197,161 91,26 201,34 309,26 108,-8 215,-32 311,-61 97,-30 183,-65 274,-103 90,-37 185,-76 273,-116 87,-40 168,-81 253,-43 84,37 173,152 359,228 186,75 470,111 692,112 223,2 384,-29 542,-76 157,-48 311,-111 464,-195 154,-85 307,-191 424,-288 116,-96 194,-183 291,-315 96,-132 211,-309 282,-415 70,-107 98,-142 181,-162 82,-19 220,-23 285,-15 65,7 57,27 2,108 -55,81 -157,222 -254,354 -96,132 -187,254 -240,363 -53,108 -69,202 -51,293 17,91 69,177 136,226 67,50 149,61 269,61 120,0 278,-11 378,-33 101,-22 144,-53 247,-112 102,-59 263,-146 419,-266 155,-120 305,-274 443,-435 138,-162 264,-331 329,-435 65,-105 69,-144 149,-164 81,-19 239,-19 306,-10 67,10 43,30 -50,150 -92,120 -254,341 -356,490 -102,150 -146,229 -169,323 -24,95 -28,205 -12,286 16,80 51,132 94,161 44,30 95,38 187,43 93,6 227,10 329,0 103,-9 173,-33 264,-82 91,-49 201,-124 276,-162 75,-37 114,-37 159,-10 45,28 97,83 164,138 67,55 149,111 285,136 136,26 325,22 486,-6 162,-27 296,-78 387,-120 91,-41 139,-73 198,-59 59,14 129,73 204,110 74,38 153,54 233,55 81,2 164,-9 264,-25 101,-16 219,-36 325,-77 106,-41 201,-104 284,-161 82,-57 153,-109 185,-154 31,-45 23,-85 -2,-104 -26,-20 -69,-20 -120,-6 -52,14 -111,41 -185,57 -75,16 -166,20 -221,10 -55,-10 -75,-34 -81,-67 -6,-34 2,-77 32,-140 29,-63 80,-146 145,-250 65,-104 144,-230 235,-337 90,-106 193,-193 250,-264 57,-70 69,-126 63,-159 -6,-34 -30,-45 -112,-51 -83,-6 -225,-6 -353,22 -129,29 -244,86 -305,100 -61,14 -68,-16 -225,-57 -158,-42 -466,-95 -763,-36 -298,59 -584,231 -775,366 -190,134 -285,233 -356,321 -71,89 -118,168 -155,243 -38,74 -65,145 -112,197 -48,51 -115,82 -191,98 -77,16 -164,16 -209,-14 -45,-29 -49,-88 -36,-147 14,-60 46,-119 156,-254 110,-136 299,-349 412,-483 112,-134 147,-189 165,-246 18,-57 18,-116 6,-163 -12,-48 -36,-83 -107,-103 -70,-20 -189,-23 -320,-21 -132,1 -278,9 -380,9 -103,0 -162,-8 -176,-27 -13,-20 18,-51 36,-112 17,-61 21,-152 15,-229 -5,-77 -21,-140 -88,-181 -67,-41 -185,-61 -288,-61 -102,0 -189,20 -267,71 -79,51 -150,134 -201,218 -51,85 -83,172 -85,249 -2,76 26,143 65,204 39,61 91,116 106,168 16,51 -4,98 -68,185 -65,86 -176,212 -286,338 -110,126 -221,252 -323,351 -102,98 -197,169 -272,207 -74,37 -130,41 -163,27 -34,-14 -45,-45 -35,-92 9,-48 41,-111 106,-217 65,-106 163,-256 268,-380 104,-124 214,-222 277,-305 62,-83 77,-150 62,-200 -15,-51 -61,-85 -133,-101 -72,-15 -172,-11 -296,-6 -125,6 -275,13 -394,14 -120,1 -209,-2 -224,-32 -14,-29 47,-85 86,-156 38,-72 54,-161 43,-256 -11,-96 -48,-198 -127,-245 -79,-46 -199,-36 -301,-17 -103,18 -187,46 -253,89 -66,44 -114,103 -146,163 -33,61 -51,124 -52,212 0,89 16,203 36,274 21,71 45,99 59,147 14,47 18,114 -29,220 -48,107 -146,252 -256,384 -111,132 -233,250 -390,362 -158,113 -351,219 -550,272 -198,53 -403,53 -555,28 -151,-26 -250,-77 -299,-109 -49,-31 -49,-43 137,-69 186,-26 558,-66 828,-167 269,-100 437,-261 524,-386 88,-126 96,-216 72,-303 -23,-87 -79,-169 -206,-235 -128,-65 -329,-113 -580,-101 -251,12 -553,85 -775,186 -223,101 -366,230 -468,326 -101,96 -160,159 -213,230 -54,70 -101,149 -122,218 -22,69 -18,128 -36,173 -18,46 -57,77 -136,101 -79,23 -197,39 -287,47 -91,8 -154,8 -201,-12 -47,-19 -79,-59 -85,-110 -6,-51 14,-114 178,-353 164,-240 472,-655 650,-869zm7291 949c37,-76 91,-135 176,-203 86,-68 203,-146 340,-197 136,-50 292,-73 376,-81 84,-9 96,-3 100,31 3,34 -3,96 -22,153 -19,56 -51,106 -88,149 -37,43 -78,78 -144,143 -65,64 -155,158 -237,212 -81,54 -155,69 -229,78 -73,10 -146,14 -204,9 -58,-5 -101,-19 -113,-72 -12,-53 8,-146 45,-222zm-6303 -278c82,-57 164,-98 238,-131 74,-32 139,-56 205,-71 66,-15 133,-21 183,-10 50,11 84,39 99,65 16,27 14,52 -3,80 -16,28 -48,57 -151,107 -104,51 -279,121 -421,162 -141,40 -250,50 -310,45 -60,-5 -72,-25 -37,-71 34,-46 115,-119 197,-176z"/>
 </g>
</svg>
